<?xml version="1.0" encoding="utf-8"?>
<!-- Generator: Adobe Illustrator 16.0.0, SVG Export Plug-In . SVG Version: 6.00 Build 0)  -->
<!DOCTYPE svg PUBLIC "-//W3C//DTD SVG 1.1//EN" "http://www.w3.org/Graphics/SVG/1.1/DTD/svg11.dtd">
<svg version="1.1" id="Layer_1" xmlns="http://www.w3.org/2000/svg" xmlns:xlink="http://www.w3.org/1999/xlink" x="0px" y="0px"
	 width="1000px" height="1000px" viewBox="0 0 1000 1000" enable-background="new 0 0 1000 1000" xml:space="preserve">
<g>
	<g>
		<g>
			<path fill="#5EB20C" d="M422.223,415.24H60.942C30.043,415.24,5,390.197,5,359.299s25.043-55.941,55.941-55.941h361.281
				c30.898,0,55.939,25.043,55.939,55.941S453.121,415.24,422.223,415.24z"/>
		</g>
		<g>
			<path fill="#5EB20C" d="M859.563,681.447H60.942C30.043,681.447,5,656.404,5,625.506s25.043-55.941,55.941-55.941h798.621
				c30.898,0,55.941,25.043,55.941,55.941S890.461,681.447,859.563,681.447z"/>
		</g>
		<g>
			<path fill="#5EB20C" d="M859.563,947.654H60.942C30.043,947.654,5,922.611,5,891.713s25.043-55.941,55.941-55.941h798.621
				c30.898,0,55.941,25.043,55.941,55.941S890.461,947.654,859.563,947.654z"/>
		</g>
	</g>
	<g>
		<path fill="#959595" d="M766.781,52.346l70.541,150.25L995,226.705L880.912,343.594l26.908,165.148l-141.039-77.969
			L625.74,508.742l26.951-165.148L538.561,226.705l157.721-24.109L766.781,52.346z"/>
	</g>
</g>
</svg>
