<?xml version="1.0" encoding="utf-8"?>
<!-- Generator: Adobe Illustrator 16.0.0, SVG Export Plug-In . SVG Version: 6.00 Build 0)  -->
<!DOCTYPE svg PUBLIC "-//W3C//DTD SVG 1.1//EN" "http://www.w3.org/Graphics/SVG/1.1/DTD/svg11.dtd">
<svg version="1.1" id="Layer_1" xmlns="http://www.w3.org/2000/svg" xmlns:xlink="http://www.w3.org/1999/xlink" x="0px" y="0px"
	 width="1000px" height="598px" viewBox="-71.5 201 1000 598" enable-background="new -71.5 201 1000 598" xml:space="preserve">
<g>
	<path fill="#FFB400" d="M-11.946,348.143c-30.108,0-54.554,24.266-54.554,54.195v337.658c0,29.893,24.445,54.195,54.554,54.195
		c30.144,0,54.589-24.303,54.589-54.195V402.338C42.643,372.408,18.198,348.143-11.946,348.143z"/>
	<path fill="#FFB400" d="M209.097,276.959c-30.144,0-54.589,24.301-54.589,54.23v337.623c0,29.893,24.445,54.193,54.589,54.193
		c30.108,0,54.553-24.301,54.553-54.193V331.189C263.65,301.26,239.205,276.959,209.097,276.959z"/>
	<path fill="#FFB400" d="M648.729,348.143c-30.108,0-54.553,24.266-54.553,54.195v337.658c0,29.893,24.444,54.195,54.553,54.195
		s54.553-24.303,54.553-54.195V402.338C703.281,372.408,678.837,348.143,648.729,348.143z"/>
	<path fill="#FFB400" d="M868.948,311.439c-30.107,0-54.553,24.266-54.553,54.195v337.658c0,29.893,24.445,54.193,54.553,54.193
		c30.108,0,54.553-24.301,54.553-54.193V365.635C923.5,335.705,899.056,311.439,868.948,311.439z"/>
	<path fill="#959595" d="M430.105,205.811c-30.144,0-54.589,24.266-54.589,54.23v337.586c0,29.965,24.445,54.195,54.589,54.195
		c30.09,0,54.606-24.23,54.606-54.195V260.041C484.711,230.076,460.195,205.811,430.105,205.811z"/>
</g>
</svg>
