<?xml version="1.0" encoding="utf-8"?>
<!-- Generator: Adobe Illustrator 16.0.0, SVG Export Plug-In . SVG Version: 6.00 Build 0)  -->
<!DOCTYPE svg PUBLIC "-//W3C//DTD SVG 1.1//EN" "http://www.w3.org/Graphics/SVG/1.1/DTD/svg11.dtd">
<svg version="1.1" id="Layer_1" xmlns="http://www.w3.org/2000/svg" xmlns:xlink="http://www.w3.org/1999/xlink" x="0px" y="0px"
	 width="1000px" height="1000px" viewBox="0 0 1000 1000" enable-background="new 0 0 1000 1000" xml:space="preserve">
<g>
	<g>
		<g>
			<path fill="#C12000" d="M44.151,504.054c-7.609,0-15.311-2.2-22.059-6.838C4.226,485.027-0.383,460.62,11.837,442.783
				c47.355-69.325,110.23-128.96,181.876-172.481c18.432-11.237,42.569-5.41,53.808,13.14c11.237,18.491,5.353,42.571-13.14,53.81
				C172.219,375.034,117.638,426.82,76.525,486.96C68.944,498.078,56.636,504.054,44.151,504.054z"/>
		</g>
	</g>
	<g>
		<g>
			<path fill="#5EB20C" d="M955.85,504.054c-12.514,0-24.793-5.977-32.373-17.094C827.694,346.763,669.391,263.048,500,263.048
				c-52.825,0-104.851,7.997-154.646,23.753c-20.869,6.422-42.659-4.964-49.199-25.536c-6.511-20.631,4.936-42.66,25.536-49.2
				C379.155,193.9,439.146,184.686,500,184.686c195.313,0,377.786,96.497,488.165,258.099c12.219,17.866,7.609,42.243-10.256,54.433
				C971.16,501.854,963.461,504.054,955.85,504.054z"/>
		</g>
	</g>
	<path fill="#959595" d="M585.408,701.091c-2.199-5.471-5.975-10.228-10.969-13.676L219.932,443.29
		c-12.813-8.83-30.263-6.541-40.4,5.32c-10.137,11.862-9.66,29.461,1.102,40.758l296.834,311.669
		c3.509,3.656,7.997,6.153,12.813,7.552c13.14,7.074,29.044,8.681,45.068,4.279c15.012-4.132,29.313-13.437,40.252-26.22
		c14.121-16.588,21.344-37.278,19.799-56.811C594.535,719.195,591.088,709.355,585.408,701.091z"/>
</g>
</svg>
